<svg xmlns="http://www.w3.org/2000/svg" width="1200" height="760" viewBox="0 0 1200 760"><title>LSA058</title><rect width="100%" height="100%" fill="white"/><g font-family="Arial, Helvetica, sans-serif"><text x="600.00" y="35.00" font-size="20" text-anchor="middle" font-weight="650" fill="#111111">LSA058_context_rich_v2 — Fig. 5F</text><line x1="143.00" y1="615.00" x2="150.00" y2="615.00" stroke="#111111" stroke-width="1.4"/><text x="136.00" y="621.00" font-size="15" text-anchor="end" font-weight="400" fill="#111111">0</text><line x1="143.00" y1="506.00" x2="150.00" y2="506.00" stroke="#111111" stroke-width="1.4"/><text x="136.00" y="512.00" font-size="15" text-anchor="end" font-weight="400" fill="#111111">18.25</text><line x1="143.00" y1="397.00" x2="150.00" y2="397.00" stroke="#111111" stroke-width="1.4"/><text x="136.00" y="403.00" font-size="15" text-anchor="end" font-weight="400" fill="#111111">36.5</text><line x1="143.00" y1="288.00" x2="150.00" y2="288.00" stroke="#111111" stroke-width="1.4"/><text x="136.00" y="294.00" font-size="15" text-anchor="end" font-weight="400" fill="#111111">54.75</text><line x1="143.00" y1="179.00" x2="150.00" y2="179.00" stroke="#111111" stroke-width="1.4"/><text x="136.00" y="185.00" font-size="15" text-anchor="end" font-weight="400" fill="#111111">73</text><line x1="143.00" y1="70.00" x2="150.00" y2="70.00" stroke="#111111" stroke-width="1.4"/><text x="136.00" y="76.00" font-size="15" text-anchor="end" font-weight="400" fill="#111111">91.25</text><line x1="150.00" y1="70.00" x2="150.00" y2="615.00" stroke="#111111" stroke-width="2"/><line x1="150.00" y1="615.00" x2="990.00" y2="615.00" stroke="#111111" stroke-width="2"/><text x="570.00" y="730.00" font-size="21" text-anchor="middle" font-weight="650" fill="#111111">Source condition</text><text x="42" y="342.50" transform="rotate(-90 42 342.50)" font-size="20" text-anchor="middle" font-weight="650" fill="#111111">Source readout</text><circle cx="355.00" cy="289.32" r="4" fill="#245c8a" stroke="white" stroke-width="1"/><circle cx="360.00" cy="289.26" r="4" fill="#245c8a" stroke="white" stroke-width="1"/><circle cx="365.00" cy="294.84" r="4" fill="#245c8a" stroke="white" stroke-width="1"/><line x1="360.00" y1="287.94" x2="360.00" y2="294.34" stroke="#245c8a" stroke-width="1.8"/><line x1="350.00" y1="287.94" x2="370.00" y2="287.94" stroke="#245c8a" stroke-width="1.8"/><line x1="350.00" y1="294.34" x2="370.00" y2="294.34" stroke="#245c8a" stroke-width="1.8"/><line x1="344.00" y1="291.14" x2="376.00" y2="291.14" stroke="#245c8a" stroke-width="3"/><text x="360.00" y="645.00" font-size="10" text-anchor="middle" font-weight="650" fill="#111111">N2 control</text><circle cx="775.00" cy="196.49" r="4" fill="#c26532" stroke="white" stroke-width="1"/><circle cx="780.00" cy="179.00" r="4" fill="#c26532" stroke="white" stroke-width="1"/><circle cx="785.00" cy="258.69" r="4" fill="#c26532" stroke="white" stroke-width="1"/><line x1="780.00" y1="169.51" x2="780.00" y2="253.27" stroke="#c26532" stroke-width="1.8"/><line x1="770.00" y1="169.51" x2="790.00" y2="169.51" stroke="#c26532" stroke-width="1.8"/><line x1="770.00" y1="253.27" x2="790.00" y2="253.27" stroke="#c26532" stroke-width="1.8"/><line x1="764.00" y1="211.39" x2="796.00" y2="211.39" stroke="#c26532" stroke-width="3"/><text x="780.00" y="645.00" font-size="10" text-anchor="middle" font-weight="650" fill="#111111">cky-1 deletion</text></g></svg>
