<svg xmlns="http://www.w3.org/2000/svg" width="1200" height="760" viewBox="0 0 1200 760"><title>LSA128</title><rect width="100%" height="100%" fill="white"/><g font-family="Arial, Helvetica, sans-serif"><text x="600.00" y="35.00" font-size="20" text-anchor="middle" font-weight="650" fill="#111111">LSA128_context_rich_v2 — Fig. 1C</text><line x1="143.00" y1="615.00" x2="150.00" y2="615.00" stroke="#111111" stroke-width="1.4"/><text x="136.00" y="621.00" font-size="15" text-anchor="end" font-weight="400" fill="#111111">0</text><line x1="143.00" y1="506.00" x2="150.00" y2="506.00" stroke="#111111" stroke-width="1.4"/><text x="136.00" y="512.00" font-size="15" text-anchor="end" font-weight="400" fill="#111111">30.17</text><line x1="143.00" y1="397.00" x2="150.00" y2="397.00" stroke="#111111" stroke-width="1.4"/><text x="136.00" y="403.00" font-size="15" text-anchor="end" font-weight="400" fill="#111111">60.35</text><line x1="143.00" y1="288.00" x2="150.00" y2="288.00" stroke="#111111" stroke-width="1.4"/><text x="136.00" y="294.00" font-size="15" text-anchor="end" font-weight="400" fill="#111111">90.52</text><line x1="143.00" y1="179.00" x2="150.00" y2="179.00" stroke="#111111" stroke-width="1.4"/><text x="136.00" y="185.00" font-size="15" text-anchor="end" font-weight="400" fill="#111111">120.69</text><line x1="143.00" y1="70.00" x2="150.00" y2="70.00" stroke="#111111" stroke-width="1.4"/><text x="136.00" y="76.00" font-size="15" text-anchor="end" font-weight="400" fill="#111111">150.87</text><line x1="150.00" y1="70.00" x2="150.00" y2="615.00" stroke="#111111" stroke-width="2"/><line x1="150.00" y1="615.00" x2="990.00" y2="615.00" stroke="#111111" stroke-width="2"/><text x="570.00" y="730.00" font-size="21" text-anchor="middle" font-weight="650" fill="#111111">Source condition</text><text x="42" y="342.50" transform="rotate(-90 42 342.50)" font-size="20" text-anchor="middle" font-weight="650" fill="#111111">Source readout</text><circle cx="197.50" cy="435.60" r="4" fill="#245c8a" stroke="white" stroke-width="1"/><circle cx="202.50" cy="427.40" r="4" fill="#245c8a" stroke="white" stroke-width="1"/><circle cx="207.50" cy="444.88" r="4" fill="#245c8a" stroke="white" stroke-width="1"/><line x1="202.50" y1="427.22" x2="202.50" y2="444.71" stroke="#245c8a" stroke-width="1.8"/><line x1="192.50" y1="427.22" x2="212.50" y2="427.22" stroke="#245c8a" stroke-width="1.8"/><line x1="192.50" y1="444.71" x2="212.50" y2="444.71" stroke="#245c8a" stroke-width="1.8"/><line x1="186.50" y1="435.96" x2="218.50" y2="435.96" stroke="#245c8a" stroke-width="3"/><text x="202.50" y="645.00" font-size="10" text-anchor="middle" font-weight="650" fill="#111111">M1018 0 h</text><circle cx="302.50" cy="410.32" r="4" fill="#c26532" stroke="white" stroke-width="1"/><circle cx="307.50" cy="386.82" r="4" fill="#c26532" stroke="white" stroke-width="1"/><circle cx="312.50" cy="402.59" r="4" fill="#c26532" stroke="white" stroke-width="1"/><line x1="307.50" y1="387.93" x2="307.50" y2="411.88" stroke="#c26532" stroke-width="1.8"/><line x1="297.50" y1="387.93" x2="317.50" y2="387.93" stroke="#c26532" stroke-width="1.8"/><line x1="297.50" y1="411.88" x2="317.50" y2="411.88" stroke="#c26532" stroke-width="1.8"/><line x1="291.50" y1="399.91" x2="323.50" y2="399.91" stroke="#c26532" stroke-width="3"/><text x="307.50" y="645.00" font-size="10" text-anchor="middle" font-weight="650" fill="#111111">M1018 40 h</text><circle cx="407.50" cy="369.95" r="4" fill="#3e7c67" stroke="white" stroke-width="1"/><circle cx="412.50" cy="355.01" r="4" fill="#3e7c67" stroke="white" stroke-width="1"/><circle cx="417.50" cy="420.17" r="4" fill="#3e7c67" stroke="white" stroke-width="1"/><line x1="412.50" y1="347.58" x2="412.50" y2="415.85" stroke="#3e7c67" stroke-width="1.8"/><line x1="402.50" y1="347.58" x2="422.50" y2="347.58" stroke="#3e7c67" stroke-width="1.8"/><line x1="402.50" y1="415.85" x2="422.50" y2="415.85" stroke="#3e7c67" stroke-width="1.8"/><line x1="396.50" y1="381.71" x2="428.50" y2="381.71" stroke="#3e7c67" stroke-width="3"/><text x="412.50" y="645.00" font-size="10" text-anchor="middle" font-weight="650" fill="#111111">BDM 0 h</text><circle cx="512.50" cy="335.64" r="4" fill="#735a8d" stroke="white" stroke-width="1"/><circle cx="517.50" cy="348.16" r="4" fill="#735a8d" stroke="white" stroke-width="1"/><circle cx="522.50" cy="345.85" r="4" fill="#735a8d" stroke="white" stroke-width="1"/><line x1="517.50" y1="336.56" x2="517.50" y2="349.88" stroke="#735a8d" stroke-width="1.8"/><line x1="507.50" y1="336.56" x2="527.50" y2="336.56" stroke="#735a8d" stroke-width="1.8"/><line x1="507.50" y1="349.88" x2="527.50" y2="349.88" stroke="#735a8d" stroke-width="1.8"/><line x1="501.50" y1="343.22" x2="533.50" y2="343.22" stroke="#735a8d" stroke-width="3"/><text x="517.50" y="645.00" font-size="10" text-anchor="middle" font-weight="650" fill="#111111">BDM 40 h</text><circle cx="617.50" cy="303.87" r="4" fill="#9a7628" stroke="white" stroke-width="1"/><circle cx="622.50" cy="315.94" r="4" fill="#9a7628" stroke="white" stroke-width="1"/><circle cx="627.50" cy="280.80" r="4" fill="#9a7628" stroke="white" stroke-width="1"/><line x1="622.50" y1="282.35" x2="622.50" y2="318.06" stroke="#9a7628" stroke-width="1.8"/><line x1="612.50" y1="282.35" x2="632.50" y2="282.35" stroke="#9a7628" stroke-width="1.8"/><line x1="612.50" y1="318.06" x2="632.50" y2="318.06" stroke="#9a7628" stroke-width="1.8"/><line x1="606.50" y1="300.20" x2="638.50" y2="300.20" stroke="#9a7628" stroke-width="3"/><text x="622.50" y="645.00" font-size="10" text-anchor="middle" font-weight="650" fill="#111111">Bleb 0 h</text><circle cx="722.50" cy="257.24" r="4" fill="#467681" stroke="white" stroke-width="1"/><circle cx="727.50" cy="276.50" r="4" fill="#467681" stroke="white" stroke-width="1"/><circle cx="732.50" cy="295.00" r="4" fill="#467681" stroke="white" stroke-width="1"/><line x1="727.50" y1="257.36" x2="727.50" y2="295.13" stroke="#467681" stroke-width="1.8"/><line x1="717.50" y1="257.36" x2="737.50" y2="257.36" stroke="#467681" stroke-width="1.8"/><line x1="717.50" y1="295.13" x2="737.50" y2="295.13" stroke="#467681" stroke-width="1.8"/><line x1="711.50" y1="276.25" x2="743.50" y2="276.25" stroke="#467681" stroke-width="3"/><text x="727.50" y="645.00" font-size="10" text-anchor="middle" font-weight="650" fill="#111111">Bleb 40 h</text><circle cx="827.50" cy="266.08" r="4" fill="#245c8a" stroke="white" stroke-width="1"/><circle cx="832.50" cy="250.76" r="4" fill="#245c8a" stroke="white" stroke-width="1"/><circle cx="837.50" cy="221.31" r="4" fill="#245c8a" stroke="white" stroke-width="1"/><line x1="832.50" y1="223.30" x2="832.50" y2="268.81" stroke="#245c8a" stroke-width="1.8"/><line x1="822.50" y1="223.30" x2="842.50" y2="223.30" stroke="#245c8a" stroke-width="1.8"/><line x1="822.50" y1="268.81" x2="842.50" y2="268.81" stroke="#245c8a" stroke-width="1.8"/><line x1="816.50" y1="246.05" x2="848.50" y2="246.05" stroke="#245c8a" stroke-width="3"/><text x="832.50" y="645.00" font-size="10" text-anchor="middle" font-weight="650" fill="#111111">nitro-Bleb 0 h</text><circle cx="932.50" cy="203.90" r="4" fill="#c26532" stroke="white" stroke-width="1"/><circle cx="937.50" cy="179.00" r="4" fill="#c26532" stroke="white" stroke-width="1"/><circle cx="942.50" cy="193.17" r="4" fill="#c26532" stroke="white" stroke-width="1"/><line x1="937.50" y1="179.54" x2="937.50" y2="204.51" stroke="#c26532" stroke-width="1.8"/><line x1="927.50" y1="179.54" x2="947.50" y2="179.54" stroke="#c26532" stroke-width="1.8"/><line x1="927.50" y1="204.51" x2="947.50" y2="204.51" stroke="#c26532" stroke-width="1.8"/><line x1="921.50" y1="192.02" x2="953.50" y2="192.02" stroke="#c26532" stroke-width="3"/><text x="937.50" y="645.00" font-size="10" text-anchor="middle" font-weight="650" fill="#111111">nitro-Bleb 40 h</text></g></svg>
