<svg xmlns="http://www.w3.org/2000/svg" width="1200" height="760" viewBox="0 0 1200 760"><title>LSA249</title><rect width="100%" height="100%" fill="white"/><g font-family="Arial, Helvetica, sans-serif"><text x="600.00" y="35.00" font-size="20" text-anchor="middle" font-weight="650" fill="#111111">LSA249_context_rich_v2 — Fig. 3B</text><line x1="143.00" y1="615.00" x2="150.00" y2="615.00" stroke="#111111" stroke-width="1.4"/><text x="136.00" y="621.00" font-size="15" text-anchor="end" font-weight="400" fill="#111111">0</text><line x1="143.00" y1="506.00" x2="150.00" y2="506.00" stroke="#111111" stroke-width="1.4"/><text x="136.00" y="512.00" font-size="15" text-anchor="end" font-weight="400" fill="#111111">30.46</text><line x1="143.00" y1="397.00" x2="150.00" y2="397.00" stroke="#111111" stroke-width="1.4"/><text x="136.00" y="403.00" font-size="15" text-anchor="end" font-weight="400" fill="#111111">60.92</text><line x1="143.00" y1="288.00" x2="150.00" y2="288.00" stroke="#111111" stroke-width="1.4"/><text x="136.00" y="294.00" font-size="15" text-anchor="end" font-weight="400" fill="#111111">91.39</text><line x1="143.00" y1="179.00" x2="150.00" y2="179.00" stroke="#111111" stroke-width="1.4"/><text x="136.00" y="185.00" font-size="15" text-anchor="end" font-weight="400" fill="#111111">121.85</text><line x1="143.00" y1="70.00" x2="150.00" y2="70.00" stroke="#111111" stroke-width="1.4"/><text x="136.00" y="76.00" font-size="15" text-anchor="end" font-weight="400" fill="#111111">152.31</text><line x1="150.00" y1="70.00" x2="150.00" y2="615.00" stroke="#111111" stroke-width="2"/><line x1="150.00" y1="615.00" x2="990.00" y2="615.00" stroke="#111111" stroke-width="2"/><text x="570.00" y="730.00" font-size="21" text-anchor="middle" font-weight="650" fill="#111111">Condition</text><text x="42" y="342.50" transform="rotate(-90 42 342.50)" font-size="20" text-anchor="middle" font-weight="650" fill="#111111">Source readout</text><circle cx="352.00" cy="262.53" r="5" fill="#245c8a" stroke="white" stroke-width="1"/><circle cx="360.00" cy="262.79" r="5" fill="#245c8a" stroke="white" stroke-width="1"/><circle cx="368.00" cy="254.30" r="5" fill="#245c8a" stroke="white" stroke-width="1"/><line x1="360.00" y1="255.05" x2="360.00" y2="264.70" stroke="#245c8a" stroke-width="1.8"/><line x1="350.00" y1="255.05" x2="370.00" y2="255.05" stroke="#245c8a" stroke-width="1.8"/><line x1="350.00" y1="264.70" x2="370.00" y2="264.70" stroke="#245c8a" stroke-width="1.8"/><line x1="340.00" y1="259.87" x2="380.00" y2="259.87" stroke="#245c8a" stroke-width="3"/><text x="360.00" y="647.00" font-size="13" text-anchor="middle" font-weight="650" fill="#111111">Vector</text><circle cx="772.00" cy="423.49" r="5" fill="#c26532" stroke="white" stroke-width="1"/><circle cx="780.00" cy="421.25" r="5" fill="#c26532" stroke="white" stroke-width="1"/><circle cx="788.00" cy="425.53" r="5" fill="#c26532" stroke="white" stroke-width="1"/><line x1="780.00" y1="421.29" x2="780.00" y2="425.57" stroke="#c26532" stroke-width="1.8"/><line x1="770.00" y1="421.29" x2="790.00" y2="421.29" stroke="#c26532" stroke-width="1.8"/><line x1="770.00" y1="425.57" x2="790.00" y2="425.57" stroke="#c26532" stroke-width="1.8"/><line x1="760.00" y1="423.43" x2="800.00" y2="423.43" stroke="#c26532" stroke-width="3"/><text x="780.00" y="647.00" font-size="13" text-anchor="middle" font-weight="650" fill="#111111">ATG9B</text></g></svg>
