<svg xmlns="http://www.w3.org/2000/svg" width="1200" height="760" viewBox="0 0 1200 760"><title>LSA053</title><rect width="100%" height="100%" fill="white"/><g font-family="Arial, Helvetica, sans-serif"><text x="600.00" y="35.00" font-size="20" text-anchor="middle" font-weight="650" fill="#111111">LSA053_context_rich_v2 — Fig. 2A</text><line x1="143.00" y1="615.00" x2="150.00" y2="615.00" stroke="#111111" stroke-width="1.4"/><text x="136.00" y="621.00" font-size="15" text-anchor="end" font-weight="400" fill="#111111">0</text><line x1="143.00" y1="506.00" x2="150.00" y2="506.00" stroke="#111111" stroke-width="1.4"/><text x="136.00" y="512.00" font-size="15" text-anchor="end" font-weight="400" fill="#111111">20.26</text><line x1="143.00" y1="397.00" x2="150.00" y2="397.00" stroke="#111111" stroke-width="1.4"/><text x="136.00" y="403.00" font-size="15" text-anchor="end" font-weight="400" fill="#111111">40.52</text><line x1="143.00" y1="288.00" x2="150.00" y2="288.00" stroke="#111111" stroke-width="1.4"/><text x="136.00" y="294.00" font-size="15" text-anchor="end" font-weight="400" fill="#111111">60.78</text><line x1="143.00" y1="179.00" x2="150.00" y2="179.00" stroke="#111111" stroke-width="1.4"/><text x="136.00" y="185.00" font-size="15" text-anchor="end" font-weight="400" fill="#111111">81.04</text><line x1="143.00" y1="70.00" x2="150.00" y2="70.00" stroke="#111111" stroke-width="1.4"/><text x="136.00" y="76.00" font-size="15" text-anchor="end" font-weight="400" fill="#111111">101.3</text><line x1="150.00" y1="70.00" x2="150.00" y2="615.00" stroke="#111111" stroke-width="2"/><line x1="150.00" y1="615.00" x2="990.00" y2="615.00" stroke="#111111" stroke-width="2"/><text x="570.00" y="730.00" font-size="21" text-anchor="middle" font-weight="650" fill="#111111">Source condition</text><text x="42" y="342.50" transform="rotate(-90 42 342.50)" font-size="20" text-anchor="middle" font-weight="650" fill="#111111">Source readout</text><circle cx="265.00" cy="341.54" r="4" fill="#245c8a" stroke="white" stroke-width="1"/><circle cx="270.00" cy="371.53" r="4" fill="#245c8a" stroke="white" stroke-width="1"/><circle cx="275.00" cy="325.09" r="4" fill="#245c8a" stroke="white" stroke-width="1"/><circle cx="280.00" cy="378.90" r="4" fill="#245c8a" stroke="white" stroke-width="1"/><circle cx="285.00" cy="307.79" r="4" fill="#245c8a" stroke="white" stroke-width="1"/><circle cx="290.00" cy="373.49" r="4" fill="#245c8a" stroke="white" stroke-width="1"/><circle cx="295.00" cy="320.81" r="4" fill="#245c8a" stroke="white" stroke-width="1"/><circle cx="300.00" cy="283.99" r="4" fill="#245c8a" stroke="white" stroke-width="1"/><circle cx="305.00" cy="349.60" r="4" fill="#245c8a" stroke="white" stroke-width="1"/><circle cx="310.00" cy="337.31" r="4" fill="#245c8a" stroke="white" stroke-width="1"/><circle cx="315.00" cy="323.76" r="4" fill="#245c8a" stroke="white" stroke-width="1"/><line x1="290.00" y1="308.13" x2="290.00" y2="367.11" stroke="#245c8a" stroke-width="1.8"/><line x1="280.00" y1="308.13" x2="300.00" y2="308.13" stroke="#245c8a" stroke-width="1.8"/><line x1="280.00" y1="367.11" x2="300.00" y2="367.11" stroke="#245c8a" stroke-width="1.8"/><line x1="274.00" y1="337.62" x2="306.00" y2="337.62" stroke="#245c8a" stroke-width="3"/><text x="290.00" y="645.00" font-size="10" text-anchor="middle" font-weight="650" fill="#111111">Control</text><circle cx="545.00" cy="224.73" r="4" fill="#c26532" stroke="white" stroke-width="1"/><circle cx="550.00" cy="332.28" r="4" fill="#c26532" stroke="white" stroke-width="1"/><circle cx="555.00" cy="266.98" r="4" fill="#c26532" stroke="white" stroke-width="1"/><circle cx="560.00" cy="329.59" r="4" fill="#c26532" stroke="white" stroke-width="1"/><circle cx="565.00" cy="298.50" r="4" fill="#c26532" stroke="white" stroke-width="1"/><circle cx="570.00" cy="298.75" r="4" fill="#c26532" stroke="white" stroke-width="1"/><circle cx="575.00" cy="316.17" r="4" fill="#c26532" stroke="white" stroke-width="1"/><circle cx="580.00" cy="251.95" r="4" fill="#c26532" stroke="white" stroke-width="1"/><circle cx="585.00" cy="366.68" r="4" fill="#c26532" stroke="white" stroke-width="1"/><circle cx="590.00" cy="276.07" r="4" fill="#c26532" stroke="white" stroke-width="1"/><circle cx="595.00" cy="307.38" r="4" fill="#c26532" stroke="white" stroke-width="1"/><line x1="570.00" y1="256.90" x2="570.00" y2="337.48" stroke="#c26532" stroke-width="1.8"/><line x1="560.00" y1="256.90" x2="580.00" y2="256.90" stroke="#c26532" stroke-width="1.8"/><line x1="560.00" y1="337.48" x2="580.00" y2="337.48" stroke="#c26532" stroke-width="1.8"/><line x1="554.00" y1="297.19" x2="586.00" y2="297.19" stroke="#c26532" stroke-width="3"/><text x="570.00" y="645.00" font-size="10" text-anchor="middle" font-weight="650" fill="#111111">Low-dose cisplatin</text><circle cx="825.00" cy="251.35" r="4" fill="#3e7c67" stroke="white" stroke-width="1"/><circle cx="830.00" cy="234.26" r="4" fill="#3e7c67" stroke="white" stroke-width="1"/><circle cx="835.00" cy="250.76" r="4" fill="#3e7c67" stroke="white" stroke-width="1"/><circle cx="840.00" cy="179.00" r="4" fill="#3e7c67" stroke="white" stroke-width="1"/><circle cx="845.00" cy="278.72" r="4" fill="#3e7c67" stroke="white" stroke-width="1"/><circle cx="850.00" cy="253.47" r="4" fill="#3e7c67" stroke="white" stroke-width="1"/><circle cx="855.00" cy="221.18" r="4" fill="#3e7c67" stroke="white" stroke-width="1"/><circle cx="860.00" cy="291.34" r="4" fill="#3e7c67" stroke="white" stroke-width="1"/><circle cx="865.00" cy="221.29" r="4" fill="#3e7c67" stroke="white" stroke-width="1"/><circle cx="870.00" cy="294.21" r="4" fill="#3e7c67" stroke="white" stroke-width="1"/><circle cx="875.00" cy="244.48" r="4" fill="#3e7c67" stroke="white" stroke-width="1"/><line x1="850.00" y1="213.52" x2="850.00" y2="281.03" stroke="#3e7c67" stroke-width="1.8"/><line x1="840.00" y1="213.52" x2="860.00" y2="213.52" stroke="#3e7c67" stroke-width="1.8"/><line x1="840.00" y1="281.03" x2="860.00" y2="281.03" stroke="#3e7c67" stroke-width="1.8"/><line x1="834.00" y1="247.28" x2="866.00" y2="247.28" stroke="#3e7c67" stroke-width="3"/><text x="850.00" y="645.00" font-size="10" text-anchor="middle" font-weight="650" fill="#111111">High-dose cisplatin</text></g></svg>
