<svg xmlns="http://www.w3.org/2000/svg" width="1200" height="760" viewBox="0 0 1200 760"><title>LSA302</title><rect width="100%" height="100%" fill="white"/><g font-family="Arial, Helvetica, sans-serif"><text x="600.00" y="35.00" font-size="20" text-anchor="middle" font-weight="650" fill="#111111">LSA302_context_rich_v2 — Fig. 1C</text><line x1="143.00" y1="615.00" x2="150.00" y2="615.00" stroke="#111111" stroke-width="1.4"/><text x="136.00" y="621.00" font-size="15" text-anchor="end" font-weight="400" fill="#111111">0</text><line x1="143.00" y1="506.00" x2="150.00" y2="506.00" stroke="#111111" stroke-width="1.4"/><text x="136.00" y="512.00" font-size="15" text-anchor="end" font-weight="400" fill="#111111">15.61</text><line x1="143.00" y1="397.00" x2="150.00" y2="397.00" stroke="#111111" stroke-width="1.4"/><text x="136.00" y="403.00" font-size="15" text-anchor="end" font-weight="400" fill="#111111">31.21</text><line x1="143.00" y1="288.00" x2="150.00" y2="288.00" stroke="#111111" stroke-width="1.4"/><text x="136.00" y="294.00" font-size="15" text-anchor="end" font-weight="400" fill="#111111">46.82</text><line x1="143.00" y1="179.00" x2="150.00" y2="179.00" stroke="#111111" stroke-width="1.4"/><text x="136.00" y="185.00" font-size="15" text-anchor="end" font-weight="400" fill="#111111">62.42</text><line x1="143.00" y1="70.00" x2="150.00" y2="70.00" stroke="#111111" stroke-width="1.4"/><text x="136.00" y="76.00" font-size="15" text-anchor="end" font-weight="400" fill="#111111">78.03</text><line x1="150.00" y1="70.00" x2="150.00" y2="615.00" stroke="#111111" stroke-width="2"/><line x1="150.00" y1="615.00" x2="990.00" y2="615.00" stroke="#111111" stroke-width="2"/><text x="570.00" y="730.00" font-size="21" text-anchor="middle" font-weight="650" fill="#111111">Source condition</text><text x="42" y="342.50" transform="rotate(-90 42 342.50)" font-size="20" text-anchor="middle" font-weight="650" fill="#111111">Source readout</text><circle cx="282.50" cy="281.93" r="4" fill="#245c8a" stroke="white" stroke-width="1"/><circle cx="287.50" cy="267.55" r="4" fill="#245c8a" stroke="white" stroke-width="1"/><circle cx="292.50" cy="221.35" r="4" fill="#245c8a" stroke="white" stroke-width="1"/><circle cx="297.50" cy="305.51" r="4" fill="#245c8a" stroke="white" stroke-width="1"/><line x1="290.00" y1="233.63" x2="290.00" y2="304.55" stroke="#245c8a" stroke-width="1.8"/><line x1="280.00" y1="233.63" x2="300.00" y2="233.63" stroke="#245c8a" stroke-width="1.8"/><line x1="280.00" y1="304.55" x2="300.00" y2="304.55" stroke="#245c8a" stroke-width="1.8"/><line x1="274.00" y1="269.09" x2="306.00" y2="269.09" stroke="#245c8a" stroke-width="3"/><text x="290.00" y="645.00" font-size="10" text-anchor="middle" font-weight="650" fill="#111111">−CA PLK4</text><circle cx="562.50" cy="189.49" r="4" fill="#c26532" stroke="white" stroke-width="1"/><circle cx="567.50" cy="235.44" r="4" fill="#c26532" stroke="white" stroke-width="1"/><circle cx="572.50" cy="223.05" r="4" fill="#c26532" stroke="white" stroke-width="1"/><circle cx="577.50" cy="179.00" r="4" fill="#c26532" stroke="white" stroke-width="1"/><line x1="570.00" y1="179.93" x2="570.00" y2="233.56" stroke="#c26532" stroke-width="1.8"/><line x1="560.00" y1="179.93" x2="580.00" y2="179.93" stroke="#c26532" stroke-width="1.8"/><line x1="560.00" y1="233.56" x2="580.00" y2="233.56" stroke="#c26532" stroke-width="1.8"/><line x1="554.00" y1="206.74" x2="586.00" y2="206.74" stroke="#c26532" stroke-width="3"/><text x="570.00" y="645.00" font-size="10" text-anchor="middle" font-weight="650" fill="#111111">+CA PLK4</text><circle cx="842.50" cy="179.36" r="4" fill="#3e7c67" stroke="white" stroke-width="1"/><circle cx="847.50" cy="189.68" r="4" fill="#3e7c67" stroke="white" stroke-width="1"/><circle cx="852.50" cy="192.66" r="4" fill="#3e7c67" stroke="white" stroke-width="1"/><circle cx="857.50" cy="186.27" r="4" fill="#3e7c67" stroke="white" stroke-width="1"/><line x1="850.00" y1="181.27" x2="850.00" y2="192.71" stroke="#3e7c67" stroke-width="1.8"/><line x1="840.00" y1="181.27" x2="860.00" y2="181.27" stroke="#3e7c67" stroke-width="1.8"/><line x1="840.00" y1="192.71" x2="860.00" y2="192.71" stroke="#3e7c67" stroke-width="1.8"/><line x1="834.00" y1="186.99" x2="866.00" y2="186.99" stroke="#3e7c67" stroke-width="3"/><text x="850.00" y="645.00" font-size="10" text-anchor="middle" font-weight="650" fill="#111111">DOX+ PLK4 1–608</text></g></svg>
