<svg xmlns="http://www.w3.org/2000/svg" width="1200" height="760" viewBox="0 0 1200 760"><title>PFR043</title><rect width="100%" height="100%" fill="white"/><g font-family="Arial, Helvetica, sans-serif"><line x1="143.00" y1="615.00" x2="150.00" y2="615.00" stroke="#111111" stroke-width="1.4"/><text x="136.00" y="621.00" font-size="15" text-anchor="end" font-weight="400" fill="#111111">0</text><line x1="143.00" y1="506.00" x2="150.00" y2="506.00" stroke="#111111" stroke-width="1.4"/><text x="136.00" y="512.00" font-size="15" text-anchor="end" font-weight="400" fill="#111111">20</text><line x1="143.00" y1="397.00" x2="150.00" y2="397.00" stroke="#111111" stroke-width="1.4"/><text x="136.00" y="403.00" font-size="15" text-anchor="end" font-weight="400" fill="#111111">40</text><line x1="143.00" y1="288.00" x2="150.00" y2="288.00" stroke="#111111" stroke-width="1.4"/><text x="136.00" y="294.00" font-size="15" text-anchor="end" font-weight="400" fill="#111111">60</text><line x1="143.00" y1="179.00" x2="150.00" y2="179.00" stroke="#111111" stroke-width="1.4"/><text x="136.00" y="185.00" font-size="15" text-anchor="end" font-weight="400" fill="#111111">80</text><line x1="143.00" y1="70.00" x2="150.00" y2="70.00" stroke="#111111" stroke-width="1.4"/><text x="136.00" y="76.00" font-size="15" text-anchor="end" font-weight="400" fill="#111111">100</text><line x1="150.00" y1="70.00" x2="150.00" y2="615.00" stroke="#111111" stroke-width="2"/><line x1="150.00" y1="615.00" x2="990.00" y2="615.00" stroke="#111111" stroke-width="2"/><text x="570.00" y="730.00" font-size="21" text-anchor="middle" font-weight="650" fill="#111111">Rescue construct</text><text x="42" y="342.50" transform="rotate(-90 42 342.50)" font-size="20" text-anchor="middle" font-weight="650" fill="#111111">Cells with calcium transients (%)</text><rect x="310.36" y="514.29" width="15.27" height="100.71" fill="white" fill-opacity="1" stroke="#245c8a" stroke-width="2"/><circle cx="314.00" cy="520.67" r="3.5" fill="#245c8a" stroke="white" stroke-width="1"/><circle cx="318.00" cy="519.12" r="3.5" fill="#245c8a" stroke="white" stroke-width="1"/><circle cx="322.00" cy="503.08" r="3.5" fill="#245c8a" stroke="white" stroke-width="1"/><line x1="318.00" y1="504.55" x2="318.00" y2="524.03" stroke="#245c8a" stroke-width="1.8"/><line x1="308.00" y1="504.55" x2="328.00" y2="504.55" stroke="#245c8a" stroke-width="1.8"/><line x1="308.00" y1="524.03" x2="328.00" y2="524.03" stroke="#245c8a" stroke-width="1.8"/><text x="318.00" y="647.00" font-size="14" text-anchor="middle" font-weight="650" fill="#111111">ECFP</text><rect x="411.16" y="172.51" width="15.27" height="442.49" fill="white" fill-opacity="1" stroke="#c26532" stroke-width="2"/><circle cx="414.80" cy="164.33" r="3.5" fill="#c26532" stroke="white" stroke-width="1"/><circle cx="418.80" cy="181.02" r="3.5" fill="#c26532" stroke="white" stroke-width="1"/><circle cx="422.80" cy="172.19" r="3.5" fill="#c26532" stroke="white" stroke-width="1"/><line x1="418.80" y1="164.16" x2="418.80" y2="180.86" stroke="#c26532" stroke-width="1.8"/><line x1="408.80" y1="164.16" x2="428.80" y2="164.16" stroke="#c26532" stroke-width="1.8"/><line x1="408.80" y1="180.86" x2="428.80" y2="180.86" stroke="#c26532" stroke-width="1.8"/><text x="418.80" y="647.00" font-size="14" text-anchor="middle" font-weight="650" fill="#111111">WT</text><text x="418.80" y="146.16" font-size="15" text-anchor="middle" font-weight="650" fill="#111111">****</text><rect x="511.96" y="203.38" width="15.27" height="411.62" fill="white" fill-opacity="1" stroke="#3e7c67" stroke-width="2"/><circle cx="515.60" cy="227.21" r="3.5" fill="#3e7c67" stroke="white" stroke-width="1"/><circle cx="519.60" cy="196.16" r="3.5" fill="#3e7c67" stroke="white" stroke-width="1"/><circle cx="523.60" cy="186.79" r="3.5" fill="#3e7c67" stroke="white" stroke-width="1"/><line x1="519.60" y1="182.23" x2="519.60" y2="224.54" stroke="#3e7c67" stroke-width="1.8"/><line x1="509.60" y1="182.23" x2="529.60" y2="182.23" stroke="#3e7c67" stroke-width="1.8"/><line x1="509.60" y1="224.54" x2="529.60" y2="224.54" stroke="#3e7c67" stroke-width="1.8"/><text x="519.60" y="647.00" font-size="14" text-anchor="middle" font-weight="650" fill="#111111">F702A</text><text x="519.60" y="164.23" font-size="15" text-anchor="middle" font-weight="650" fill="#111111">n.s.</text><rect x="612.76" y="471.03" width="15.27" height="143.97" fill="white" fill-opacity="1" stroke="#735a8d" stroke-width="2"/><circle cx="616.40" cy="515.43" r="3.5" fill="#735a8d" stroke="white" stroke-width="1"/><circle cx="620.40" cy="438.38" r="3.5" fill="#735a8d" stroke="white" stroke-width="1"/><circle cx="624.40" cy="459.29" r="3.5" fill="#735a8d" stroke="white" stroke-width="1"/><line x1="620.40" y1="431.19" x2="620.40" y2="510.88" stroke="#735a8d" stroke-width="1.8"/><line x1="610.40" y1="431.19" x2="630.40" y2="431.19" stroke="#735a8d" stroke-width="1.8"/><line x1="610.40" y1="510.88" x2="630.40" y2="510.88" stroke="#735a8d" stroke-width="1.8"/><text x="620.40" y="647.00" font-size="14" text-anchor="middle" font-weight="650" fill="#111111">H1433L</text><text x="620.40" y="413.19" font-size="15" text-anchor="middle" font-weight="650" fill="#111111">****</text><rect x="713.56" y="194.39" width="15.27" height="420.61" fill="white" fill-opacity="1" stroke="#9a7628" stroke-width="2"/><circle cx="717.20" cy="174.81" r="3.5" fill="#9a7628" stroke="white" stroke-width="1"/><circle cx="721.20" cy="226.44" r="3.5" fill="#9a7628" stroke="white" stroke-width="1"/><circle cx="725.20" cy="181.92" r="3.5" fill="#9a7628" stroke="white" stroke-width="1"/><line x1="721.20" y1="166.41" x2="721.20" y2="222.37" stroke="#9a7628" stroke-width="1.8"/><line x1="711.20" y1="166.41" x2="731.20" y2="166.41" stroke="#9a7628" stroke-width="1.8"/><line x1="711.20" y1="222.37" x2="731.20" y2="222.37" stroke="#9a7628" stroke-width="1.8"/><text x="721.20" y="647.00" font-size="14" text-anchor="middle" font-weight="650" fill="#111111">R2130L</text><text x="721.20" y="148.41" font-size="15" text-anchor="middle" font-weight="650" fill="#111111">n.s.</text><rect x="814.36" y="454.74" width="15.27" height="160.26" fill="white" fill-opacity="1" stroke="#467681" stroke-width="2"/><circle cx="818.00" cy="436.83" r="3.5" fill="#467681" stroke="white" stroke-width="1"/><circle cx="822.00" cy="453.52" r="3.5" fill="#467681" stroke="white" stroke-width="1"/><circle cx="826.00" cy="473.88" r="3.5" fill="#467681" stroke="white" stroke-width="1"/><line x1="822.00" y1="436.18" x2="822.00" y2="473.30" stroke="#467681" stroke-width="1.8"/><line x1="812.00" y1="436.18" x2="832.00" y2="436.18" stroke="#467681" stroke-width="1.8"/><line x1="812.00" y1="473.30" x2="832.00" y2="473.30" stroke="#467681" stroke-width="1.8"/><text x="822.00" y="647.00" font-size="14" text-anchor="middle" font-weight="650" fill="#111111">ΔYins</text><text x="822.00" y="418.18" font-size="15" text-anchor="middle" font-weight="650" fill="#111111">****</text></g></svg>
