<svg xmlns="http://www.w3.org/2000/svg" width="1200" height="760" viewBox="0 0 1200 760"><title>LSA217</title><rect width="100%" height="100%" fill="white"/><g font-family="Arial, Helvetica, sans-serif"><text x="600.00" y="35.00" font-size="20" text-anchor="middle" font-weight="650" fill="#111111">LSA217_context_rich_v2 — Fig. 1E</text><line x1="143.00" y1="615.00" x2="150.00" y2="615.00" stroke="#111111" stroke-width="1.4"/><text x="136.00" y="621.00" font-size="15" text-anchor="end" font-weight="400" fill="#111111">0</text><line x1="143.00" y1="506.00" x2="150.00" y2="506.00" stroke="#111111" stroke-width="1.4"/><text x="136.00" y="512.00" font-size="15" text-anchor="end" font-weight="400" fill="#111111">0.2</text><line x1="143.00" y1="397.00" x2="150.00" y2="397.00" stroke="#111111" stroke-width="1.4"/><text x="136.00" y="403.00" font-size="15" text-anchor="end" font-weight="400" fill="#111111">0.4</text><line x1="143.00" y1="288.00" x2="150.00" y2="288.00" stroke="#111111" stroke-width="1.4"/><text x="136.00" y="294.00" font-size="15" text-anchor="end" font-weight="400" fill="#111111">0.6</text><line x1="143.00" y1="179.00" x2="150.00" y2="179.00" stroke="#111111" stroke-width="1.4"/><text x="136.00" y="185.00" font-size="15" text-anchor="end" font-weight="400" fill="#111111">0.8</text><line x1="143.00" y1="70.00" x2="150.00" y2="70.00" stroke="#111111" stroke-width="1.4"/><text x="136.00" y="76.00" font-size="15" text-anchor="end" font-weight="400" fill="#111111">1</text><line x1="150.00" y1="70.00" x2="150.00" y2="615.00" stroke="#111111" stroke-width="2"/><line x1="150.00" y1="615.00" x2="990.00" y2="615.00" stroke="#111111" stroke-width="2"/><text x="570.00" y="730.00" font-size="21" text-anchor="middle" font-weight="650" fill="#111111">Follow-up time</text><text x="42" y="342.50" transform="rotate(-90 42 342.50)" font-size="20" text-anchor="middle" font-weight="650" fill="#111111">Event-free proportion</text><line x1="150.00" y1="70.00" x2="181.54" y2="106.33" stroke="#245c8a" stroke-width="3"/><line x1="181.54" y1="106.33" x2="348.66" y2="142.67" stroke="#245c8a" stroke-width="3"/><line x1="348.66" y1="142.67" x2="360.47" y2="179.00" stroke="#245c8a" stroke-width="3"/><line x1="360.47" y1="179.00" x2="364.81" y2="215.33" stroke="#245c8a" stroke-width="3"/><line x1="364.81" y1="215.33" x2="409.55" y2="251.67" stroke="#245c8a" stroke-width="3"/><line x1="409.55" y1="251.67" x2="413.56" y2="288.00" stroke="#245c8a" stroke-width="3"/><line x1="413.56" y1="288.00" x2="431.24" y2="324.33" stroke="#245c8a" stroke-width="3"/><line x1="431.24" y1="324.33" x2="435.86" y2="360.67" stroke="#245c8a" stroke-width="3"/><line x1="435.86" y1="360.67" x2="455.57" y2="397.00" stroke="#245c8a" stroke-width="3"/><line x1="455.57" y1="397.00" x2="480.72" y2="433.33" stroke="#245c8a" stroke-width="3"/><line x1="480.72" y1="433.33" x2="525.87" y2="469.67" stroke="#245c8a" stroke-width="3"/><line x1="525.87" y1="469.67" x2="574.27" y2="506.00" stroke="#245c8a" stroke-width="3"/><line x1="574.27" y1="506.00" x2="630.87" y2="542.33" stroke="#245c8a" stroke-width="3"/><line x1="630.87" y1="542.33" x2="651.61" y2="578.67" stroke="#245c8a" stroke-width="3"/><line x1="651.61" y1="578.67" x2="702.68" y2="578.67" stroke="#245c8a" stroke-width="3"/><text x="1010.00" y="95.00" font-size="13" text-anchor="start" font-weight="400" fill="#245c8a">CPD</text><line x1="150.00" y1="70.00" x2="425.32" y2="106.33" stroke="#c26532" stroke-width="3"/><line x1="425.32" y1="106.33" x2="509.98" y2="142.67" stroke="#c26532" stroke-width="3"/><line x1="509.98" y1="142.67" x2="515.51" y2="179.00" stroke="#c26532" stroke-width="3"/><line x1="515.51" y1="179.00" x2="521.21" y2="215.33" stroke="#c26532" stroke-width="3"/><line x1="521.21" y1="215.33" x2="522.80" y2="251.67" stroke="#c26532" stroke-width="3"/><line x1="522.80" y1="251.67" x2="558.61" y2="288.00" stroke="#c26532" stroke-width="3"/><line x1="558.61" y1="288.00" x2="564.32" y2="324.33" stroke="#c26532" stroke-width="3"/><line x1="564.32" y1="324.33" x2="578.59" y2="360.67" stroke="#c26532" stroke-width="3"/><line x1="578.59" y1="360.67" x2="595.17" y2="360.67" stroke="#c26532" stroke-width="3"/><line x1="595.17" y1="360.67" x2="604.00" y2="403.06" stroke="#c26532" stroke-width="3"/><line x1="604.00" y1="403.06" x2="637.91" y2="445.44" stroke="#c26532" stroke-width="3"/><line x1="637.91" y1="445.44" x2="655.48" y2="487.83" stroke="#c26532" stroke-width="3"/><line x1="655.48" y1="487.83" x2="735.04" y2="530.22" stroke="#c26532" stroke-width="3"/><line x1="735.04" y1="530.22" x2="780.21" y2="572.61" stroke="#c26532" stroke-width="3"/><line x1="780.21" y1="572.61" x2="840.35" y2="572.61" stroke="#c26532" stroke-width="3"/><text x="1010.00" y="121.00" font-size="13" text-anchor="start" font-weight="400" fill="#c26532">LPD</text><line x1="150.00" y1="70.00" x2="454.56" y2="106.33" stroke="#3e7c67" stroke-width="3"/><line x1="454.56" y1="106.33" x2="556.61" y2="142.67" stroke="#3e7c67" stroke-width="3"/><line x1="556.61" y1="142.67" x2="579.94" y2="179.00" stroke="#3e7c67" stroke-width="3"/><line x1="579.94" y1="179.00" x2="615.62" y2="179.00" stroke="#3e7c67" stroke-width="3"/><line x1="615.62" y1="179.00" x2="617.37" y2="218.64" stroke="#3e7c67" stroke-width="3"/><line x1="617.37" y1="218.64" x2="631.52" y2="258.27" stroke="#3e7c67" stroke-width="3"/><line x1="631.52" y1="258.27" x2="674.46" y2="297.91" stroke="#3e7c67" stroke-width="3"/><line x1="674.46" y1="297.91" x2="727.74" y2="337.55" stroke="#3e7c67" stroke-width="3"/><line x1="727.74" y1="337.55" x2="746.27" y2="377.18" stroke="#3e7c67" stroke-width="3"/><line x1="746.27" y1="377.18" x2="746.82" y2="377.18" stroke="#3e7c67" stroke-width="3"/><line x1="746.82" y1="377.18" x2="772.90" y2="424.75" stroke="#3e7c67" stroke-width="3"/><line x1="772.90" y1="424.75" x2="784.72" y2="472.31" stroke="#3e7c67" stroke-width="3"/><line x1="784.72" y1="472.31" x2="787.73" y2="472.31" stroke="#3e7c67" stroke-width="3"/><line x1="787.73" y1="472.31" x2="816.71" y2="543.65" stroke="#3e7c67" stroke-width="3"/><line x1="816.71" y1="543.65" x2="856.06" y2="615.00" stroke="#3e7c67" stroke-width="3"/><text x="1010.00" y="147.00" font-size="13" text-anchor="start" font-weight="400" fill="#3e7c67">CPD + LPS</text><line x1="150.00" y1="70.00" x2="678.17" y2="106.33" stroke="#735a8d" stroke-width="3"/><line x1="678.17" y1="106.33" x2="683.61" y2="142.67" stroke="#735a8d" stroke-width="3"/><line x1="683.61" y1="142.67" x2="683.97" y2="179.00" stroke="#735a8d" stroke-width="3"/><line x1="683.97" y1="179.00" x2="700.11" y2="215.33" stroke="#735a8d" stroke-width="3"/><line x1="700.11" y1="215.33" x2="741.46" y2="251.67" stroke="#735a8d" stroke-width="3"/><line x1="741.46" y1="251.67" x2="761.77" y2="288.00" stroke="#735a8d" stroke-width="3"/><line x1="761.77" y1="288.00" x2="793.72" y2="324.33" stroke="#735a8d" stroke-width="3"/><line x1="793.72" y1="324.33" x2="794.48" y2="324.33" stroke="#735a8d" stroke-width="3"/><line x1="794.48" y1="324.33" x2="811.64" y2="324.33" stroke="#735a8d" stroke-width="3"/><line x1="811.64" y1="324.33" x2="817.23" y2="324.33" stroke="#735a8d" stroke-width="3"/><line x1="817.23" y1="324.33" x2="821.71" y2="382.47" stroke="#735a8d" stroke-width="3"/><line x1="821.71" y1="382.47" x2="830.94" y2="440.60" stroke="#735a8d" stroke-width="3"/><line x1="830.94" y1="440.60" x2="853.54" y2="498.73" stroke="#735a8d" stroke-width="3"/><line x1="853.54" y1="498.73" x2="890.61" y2="498.73" stroke="#735a8d" stroke-width="3"/><line x1="890.61" y1="498.73" x2="990.00" y2="615.00" stroke="#735a8d" stroke-width="3"/><text x="1010.00" y="173.00" font-size="13" text-anchor="start" font-weight="400" fill="#735a8d">LPD + LPS</text></g></svg>
